<svg xmlns="http://www.w3.org/2000/svg"><symbol id="facebook" viewBox="0 0 8 16"><path fill="#385C8E" d="M.37 8.084h1.66v6.828a.244.244 0 0 0 .244.244h2.812a.244.244 0 0 0 .244-.244V8.116h1.907a.244.244 0 0 0 .242-.216l.29-2.514a.244.244 0 0 0-.242-.272h-2.2V3.539c0-.475.256-.716.76-.716h1.436a.244.244 0 0 0 .244-.244V.272a.244.244 0 0 0-.24-.246H5.454a3.792 3.792 0 0 0-2.48.935 2.6 2.6 0 0 0-.865 2.31v1.844H.368a.244.244 0 0 0-.244.244v2.48a.244.244 0 0 0 .247.245z"/></symbol><symbol id="profile" viewBox="0 0 21 21"><path fill="#22262A" fill-rule="evenodd" d="M20.81 16.918a10.108 10.108 0 0 0-5.545-5.766 6.1 6.1 0 0 0 2.227-4.663 6.33 6.33 0 0 0-5.77-6.202 6.24 6.24 0 0 0-1.536 0 6.32 6.32 0 0 0-5.764 6.202 6.102 6.102 0 0 0 2.227 4.663 10.099 10.099 0 0 0-5.547 5.766 2.414 2.414 0 0 0 .339 2.27 2.654 2.654 0 0 0 2.133 1.051h14.775a2.648 2.648 0 0 0 2.13-1.05 2.407 2.407 0 0 0 .331-2.27zM7.036 6.49a3.807 3.807 0 0 1 3.518-3.725c.269-.033.54-.033.81 0a3.757 3.757 0 0 1 3.043 2.682 3.765 3.765 0 0 1-1.162 3.888A3.757 3.757 0 0 1 7.036 6.49zM3.571 17.74a7.965 7.965 0 0 1 7.388-4.999 7.955 7.955 0 0 1 7.387 5H3.571z" clip-rule="evenodd"/></symbol><symbol id="cart" viewBox="0 0 18 19"><path fill="#33A0FF" fill-rule="evenodd" d="M14.44 12.878a2.221 2.221 0 0 0 2.176-1.792l1.115-5.573a2.23 2.23 0 0 0-2.18-2.666H4.45V1.732A1.115 1.115 0 0 0 3.338.618H1.124a1.115 1.115 0 0 0 0 2.229H2.24v11.145a2.229 2.229 0 1 0 2.22 2.229h7.765a2.22 2.22 0 1 0 2.22-2.229H4.457v-1.114h9.983zm1.115-7.8l-1.115 5.573H4.453V5.078h11.102z" clip-rule="evenodd"/></symbol><symbol id="refund" viewBox="0 0 70 79"><path fill="#FF6875" d="M56.075 16.709l-3.771 4.844a28.287 28.287 0 1 1-15.782-5.888l-5.307 5.567 3.937 3.757 8.376-8.8 3.753-3.942-3.93-3.741L34.557.128l-3.755 3.941 5.728 5.456a34.399 34.399 0 0 0-6.905 68.344c1.793.284 3.605.426 5.42.426a34.413 34.413 0 0 0 21.03-61.586z"/><path fill="#FF6875" d="M38.342 61.433V57.9c4.189-.468 8.263-3.113 8.263-8.137 0-6.825-6.346-7.607-10.981-8.178-2.964-.354-5.233-.765-5.233-2.56 0-2.497 3.52-2.767 5.029-2.767 2.245 0 4.641 1.056 5.456 2.403l.236.392 4.652-2.155-.23-.469a9.19 9.19 0 0 0-7.201-4.987v-3.111h-5.444v3.096c-5.075.754-8.09 3.566-8.09 7.596 0 6.571 5.967 7.238 10.32 7.727 3.88.457 5.685 1.415 5.685 3.017 0 3.051-4.225 3.289-5.52 3.289-2.883 0-5.657-1.438-6.467-3.35l-.2-.47-5.051 2.14.2.472c1.498 3.506 4.73 5.702 9.13 6.222v3.363h5.446z"/></symbol><symbol id="hearts" viewBox="0 0 19 17"><path fill="#33A0FF" fill-rule="evenodd" d="M12.822 2.961a3.344 3.344 0 0 1 2.5 5.561c-.613.691-5.84 5.584-5.84 5.584s-5.238-4.893-5.85-5.595a3.3 3.3 0 0 1-.837-2.207 3.344 3.344 0 0 1 6.687 0 3.344 3.344 0 0 1 3.344-3.344l-.004.001zm.004-2.23a5.543 5.543 0 0 0-3.344 1.115 5.573 5.573 0 0 0-7.519 8.141c.626.718 4.75 4.578 6 5.744a2.229 2.229 0 0 0 3.045 0c1.244-1.165 5.35-5.015 5.984-5.732a5.573 5.573 0 0 0-4.17-9.267l.004-.001z" clip-rule="evenodd"/></symbol><symbol id="search" viewBox="0 0 22 22"><path fill="#22262A" fill-rule="evenodd" d="M20.707 19.457L14.4 13.12a7.837 7.837 0 1 0-1.844 1.858l6.308 6.338a1.307 1.307 0 0 0 2.245-.93 1.31 1.31 0 0 0-.4-.928zM8.018 13.815A5.257 5.257 0 1 1 7.96 3.302a5.257 5.257 0 0 1 .058 10.513z" clip-rule="evenodd"/></symbol><symbol id="shipping" viewBox="0 0 101 67"><path fill="#FF6875" d="M100.816 34.123v-.057a2.307 2.307 0 0 0-2.315-2.276h-.609l-9.411-18.179a2.311 2.311 0 0 0-2.062-1.245H70.361l.612-4.857A6.6 6.6 0 0 0 64.321.202h-49.84a2.463 2.463 0 0 0-2.438 2.22l-.503 4h28.4a3.236 3.236 0 0 1 3.251 3.34 3.446 3.446 0 0 1-3.425 3.339h-9.472v.014H2.484a2.436 2.436 0 0 0-2.422 2.357 2.289 2.289 0 0 0 2.3 2.364h36.823a3.461 3.461 0 0 1 2.939 3.531 3.693 3.693 0 0 1-3.646 3.575H13.096a2.461 2.461 0 0 0-2.447 2.39 2.311 2.311 0 0 0 2.322 2.388h25.088a3.46 3.46 0 0 1 2.988 3.528 3.693 3.693 0 0 1-3.671 3.576H6.178a2.462 2.462 0 0 0-2.448 2.389 2.31 2.31 0 0 0 2.322 2.389H8.14l-.816 8.541a6.599 6.599 0 0 0 6.652 7.306h1.802a10.403 10.403 0 0 0 10.295 8.613 11.106 11.106 0 0 0 10.745-8.613h22.468a7.613 7.613 0 0 0 4.885-1.832 6.64 6.64 0 0 0 4.652 1.832h.37a10.403 10.403 0 0 0 10.295 8.613 11.106 11.106 0 0 0 10.745-8.613h1.48a7.832 7.832 0 0 0 7.637-7.002l1.454-16.092v-.065c0-.023.006-.066.007-.1.001-.033.006-.049.006-.067zm-74.62 27.165a5.782 5.782 0 0 1-5.805-5.961 6.16 6.16 0 0 1 6.117-5.962 5.783 5.783 0 0 1 5.806 5.962 6.16 6.16 0 0 1-6.117 5.961zm53.418 0a5.783 5.783 0 0 1-5.806-5.961 6.16 6.16 0 0 1 6.117-5.962 5.782 5.782 0 0 1 5.806 5.962 6.16 6.16 0 0 1-6.117 5.961zm14.99-11.15a2.871 2.871 0 0 1-2.766 2.537h-1.6a10.404 10.404 0 0 0-10.183-8.08 11.109 11.109 0 0 0-10.61 8.08h-.492a2.024 2.024 0 0 1-1.524-.64 2.054 2.054 0 0 1-.503-1.591l3.007-33.316h6.906L75.745 29.26a6.598 6.598 0 0 0 6.652 7.307h13.43l-1.224 13.571z"/></symbol><symbol id="twitter" viewBox="0 0 15 12"><path fill="#03A9F4" d="M14.687 1.433c-.55.24-1.132.4-1.728.474A2.983 2.983 0 0 0 14.28.249a6 6 0 0 1-1.9.726 3 3 0 0 0-5.192 2.05c-.002.23.021.46.07.685A8.49 8.49 0 0 1 1.074.572a3 3 0 0 0 .922 4.009 2.962 2.962 0 0 1-1.355-.37v.034a3.014 3.014 0 0 0 2.4 2.948 2.994 2.994 0 0 1-.787.1 2.653 2.653 0 0 1-.568-.051 3.028 3.028 0 0 0 2.8 2.09 6.028 6.028 0 0 1-4.432 1.237 8.445 8.445 0 0 0 4.6 1.346 8.477 8.477 0 0 0 8.538-8.536c0-.133 0-.261-.01-.388a5.984 5.984 0 0 0 1.505-1.558z"/></symbol><symbol id="support" viewBox="0 0 69 89"><path fill="#FF6875" d="M.515 70.401v18.565h67.668V70.401a7.818 7.818 0 0 0-7.807-7.807H8.323a7.817 7.817 0 0 0-7.808 7.807zm5.205 0A2.606 2.606 0 0 1 8.323 67.8h2.602v15.966H5.72V70.401zM16.131 67.8h6.73l11.488 11.488L45.838 67.8h6.725v15.966H16.131V67.8zm46.847 2.6v13.36h-5.205V67.796h2.603a2.607 2.607 0 0 1 2.602 2.606zm-24.501-2.6l-4.128 4.127-4.127-4.127h8.255z"/><path fill="#FF6875" d="M53.82 52.18h3.957v-5.206h2.602a7.818 7.818 0 0 0 7.808-7.807v-5.205a33.836 33.836 0 0 0-67.672.003v5.205a7.817 7.817 0 0 0 7.808 7.807h3.942a23.415 23.415 0 0 0 41.556 5.202zm6.56-10.412h-2.754a23.4 23.4 0 0 0 .146-2.602V33.96a23.4 23.4 0 0 0-.146-2.602h2.748a2.606 2.606 0 0 1 2.603 2.602v5.205a2.606 2.606 0 0 1-2.602 2.607l.005-.005zM34.35 5.336a28.68 28.68 0 0 1 27.588 20.979 7.812 7.812 0 0 0-1.562-.157h-3.944a23.422 23.422 0 0 0-44.167 0H8.323a7.81 7.81 0 0 0-1.563.157 28.68 28.68 0 0 1 27.59-20.98zM49.294 23.56a18.292 18.292 0 0 1-14.946 7.803H16.317a18.212 18.212 0 0 1 32.978-7.803zM8.323 41.773a2.606 2.606 0 0 1-2.603-2.602v-5.205a2.606 2.606 0 0 1 2.603-2.602h2.753a23.425 23.425 0 0 0-.146 2.602v5.205c0 .87.049 1.738.146 2.602H8.323zm7.807-2.602v-2.602h18.22a23.51 23.51 0 0 0 17.46-7.815c.505 1.69.761 3.446.76 5.21v5.206a18.11 18.11 0 0 1-1.76 7.807h-8.654l-2.29-2.286a7.809 7.809 0 0 1-11.042 0l-3.68 3.68a13.012 13.012 0 0 0 17.009 1.21v2.598h4.928a18.208 18.208 0 0 1-30.95-13.01l-.001.002z"/></symbol></svg>