<svg xmlns="http://www.w3.org/2000/svg"><symbol id="facebook" viewBox="0 0 8 16"><path fill="#385C8E" d="M.37 8.084h1.66v6.828a.244.244 0 0 0 .244.244h2.812a.244.244 0 0 0 .244-.244V8.116h1.907a.244.244 0 0 0 .242-.216l.29-2.514a.244.244 0 0 0-.242-.272h-2.2V3.539c0-.475.256-.716.76-.716h1.436a.244.244 0 0 0 .244-.244V.272a.244.244 0 0 0-.24-.246H5.454a3.792 3.792 0 0 0-2.48.935 2.6 2.6 0 0 0-.865 2.31v1.844H.368a.244.244 0 0 0-.244.244v2.48a.244.244 0 0 0 .247.245z"/></symbol><symbol id="cart" viewBox="0 0 512 512"><path d="M504.399 185.065c-6.761-8.482-16.904-13.348-27.83-13.348h-98.604L324.496 49.284c-3.315-7.591-12.157-11.06-19.749-7.743-7.592 3.315-11.059 12.158-7.743 19.75l48.225 110.427H166.771l48.225-110.427c3.315-7.592-.151-16.434-7.743-19.75-7.591-3.317-16.434.15-19.749 7.743l-53.469 122.434H35.431c-10.926 0-21.069 4.865-27.83 13.348C.964 193.394-1.485 204.1.882 214.442l52.657 230c3.677 16.06 17.884 27.276 34.549 27.276h335.824c16.665 0 30.872-11.216 34.549-27.276l52.657-230.001c2.367-10.342-.082-21.048-6.719-29.376zm-80.487 256.652H88.088c-2.547 0-4.778-1.67-5.305-3.972L30.126 207.747c-.413-1.805.28-3.163.936-3.984.608-.764 1.985-2.045 4.369-2.045h85.503l-3.929 8.997c-3.315 7.592.151 16.434 7.743 19.75a14.935 14.935 0 0 0 5.995 1.258c5.782 0 11.292-3.363 13.754-9l9.173-21.003h204.662l9.173 21.003c2.462 5.638 7.972 9 13.754 9 2.004 0 4.041-.404 5.995-1.258 7.592-3.315 11.059-12.158 7.743-19.75l-3.929-8.997h85.503c2.384 0 3.761 1.281 4.369 2.045.655.822 1.349 2.18.936 3.983l-52.657 230c-.528 2.301-2.76 3.971-5.307 3.971z" data-original="#000000"/><path d="M166 266.717c-8.284 0-15 6.716-15 15v110c0 8.284 6.716 15 15 15s15-6.716 15-15v-110c0-8.284-6.715-15-15-15zm90 0c-8.284 0-15 6.716-15 15v110c0 8.284 6.716 15 15 15s15-6.716 15-15v-110c0-8.284-6.716-15-15-15zm90 0c-8.284 0-15 6.716-15 15v110c0 8.284 6.716 15 15 15s15-6.716 15-15v-110c-.001-8.284-6.716-15-15-15z" data-original="#000000"/></symbol><symbol id="search" viewBox="0 0 128 128"><path d="M118.828 113.172L89.792 84.135C96.158 76.502 100 66.694 100 56c0-24.262-19.738-44-44-44S12 31.738 12 56s19.738 44 44 44c10.694 0 20.502-3.842 28.135-10.208l29.037 29.037c.781.781 1.805 1.172 2.828 1.172s2.047-.391 2.828-1.172a3.999 3.999 0 0 0 0-5.657zM20 56c0-19.85 16.148-36 36-36s36 16.15 36 36-16.148 36-36 36-36-16.15-36-36z" data-original="#000000"/></symbol><symbol id="burger-menu" viewBox="0 0 100 100"><path d="M25.9 38.5H74c.7 0 1.2-.6 1.2-1.2s-.4-1.3-1.1-1.3H25.9c-.7 0-1.2.6-1.2 1.2s.5 1.3 1.2 1.3zm48.2 10.2H25.9c-.7 0-1.2.6-1.2 1.2s.6 1.2 1.2 1.2H74c.7 0 1.2-.6 1.2-1.2s-.4-1.2-1.1-1.2zm0 12.8H25.9c-.7 0-1.2.6-1.2 1.2s.6 1.2 1.2 1.2H74c.7 0 1.2-.6 1.2-1.2s-.4-1.2-1.1-1.2z" data-original="#000000"/></symbol><symbol id="favorit" viewBox="0 0 512 512"><path d="M375.467 22.164c-60.061 0-99.769 32.795-119.467 54.493-19.697-21.696-59.406-54.493-119.467-54.493C54.581 22.164 0 98.373 0 183.744c0 63.878 32.211 188.323 247.931 304.064a17.066 17.066 0 0 0 16.138 0C479.79 372.066 512 247.622 512 183.744c0-87.352-56.197-161.58-136.533-161.58zM256 453.348C152.381 396.376 34.133 301.45 34.133 183.744c0-65.477 39.319-127.446 102.4-127.446 47.857 0 87.452 29.344 104.973 56.973 6.679 10.743 22.365 10.732 29.017-.046.352-.569 35.938-56.928 104.944-56.928 63.551 0 102.4 62.591 102.4 127.446 0 117.709-118.245 212.632-221.867 269.605z" data-original="#000000"/></symbol><symbol id="user" viewBox="0 0 512 512"><path d="M437.02 330.98c-27.883-27.882-61.071-48.523-97.281-61.018C378.521 243.251 404 198.548 404 148 404 66.393 337.607 0 256 0S108 66.393 108 148c0 50.548 25.479 95.251 64.262 121.962-36.21 12.495-69.398 33.136-97.281 61.018C26.629 379.333 0 443.62 0 512h40c0-119.103 96.897-216 216-216s216 96.897 216 216h40c0-68.38-26.629-132.667-74.98-181.02zM256 256c-59.551 0-108-48.448-108-108S196.449 40 256 40s108 48.448 108 108-48.449 108-108 108z" data-original="#000000"/></symbol><symbol id="refund" viewBox="0 0 70 79"><path fill="#FF6875" d="M56.075 16.709l-3.771 4.844a28.287 28.287 0 1 1-15.782-5.888l-5.307 5.567 3.937 3.757 8.376-8.8 3.753-3.942-3.93-3.741L34.557.128l-3.755 3.941 5.728 5.456a34.399 34.399 0 0 0-6.905 68.344c1.793.284 3.605.426 5.42.426a34.413 34.413 0 0 0 21.03-61.586z"/><path fill="#FF6875" d="M38.342 61.433V57.9c4.189-.468 8.263-3.113 8.263-8.137 0-6.825-6.346-7.607-10.981-8.178-2.964-.354-5.233-.765-5.233-2.56 0-2.497 3.52-2.767 5.029-2.767 2.245 0 4.641 1.056 5.456 2.403l.236.392 4.652-2.155-.23-.469a9.19 9.19 0 0 0-7.201-4.987v-3.111h-5.444v3.096c-5.075.754-8.09 3.566-8.09 7.596 0 6.571 5.967 7.238 10.32 7.727 3.88.457 5.685 1.415 5.685 3.017 0 3.051-4.225 3.289-5.52 3.289-2.883 0-5.657-1.438-6.467-3.35l-.2-.47-5.051 2.14.2.472c1.498 3.506 4.73 5.702 9.13 6.222v3.363h5.446z"/></symbol><symbol id="hearts" viewBox="0 0 19 17"><path fill="#33A0FF" fill-rule="evenodd" d="M12.822 2.961a3.344 3.344 0 0 1 2.5 5.561c-.613.691-5.84 5.584-5.84 5.584s-5.238-4.893-5.85-5.595a3.3 3.3 0 0 1-.837-2.207 3.344 3.344 0 0 1 6.687 0 3.344 3.344 0 0 1 3.344-3.344l-.004.001zm.004-2.23a5.543 5.543 0 0 0-3.344 1.115 5.573 5.573 0 0 0-7.519 8.141c.626.718 4.75 4.578 6 5.744a2.229 2.229 0 0 0 3.045 0c1.244-1.165 5.35-5.015 5.984-5.732a5.573 5.573 0 0 0-4.17-9.267l.004-.001z" clip-rule="evenodd"/></symbol><symbol id="shipping" viewBox="0 0 101 67"><path fill="#FF6875" d="M100.816 34.123v-.057a2.307 2.307 0 0 0-2.315-2.276h-.609l-9.411-18.179a2.311 2.311 0 0 0-2.062-1.245H70.361l.612-4.857A6.6 6.6 0 0 0 64.321.202h-49.84a2.463 2.463 0 0 0-2.438 2.22l-.503 4h28.4a3.236 3.236 0 0 1 3.251 3.34 3.446 3.446 0 0 1-3.425 3.339h-9.472v.014H2.484a2.436 2.436 0 0 0-2.422 2.357 2.289 2.289 0 0 0 2.3 2.364h36.823a3.461 3.461 0 0 1 2.939 3.531 3.693 3.693 0 0 1-3.646 3.575H13.096a2.461 2.461 0 0 0-2.447 2.39 2.311 2.311 0 0 0 2.322 2.388h25.088a3.46 3.46 0 0 1 2.988 3.528 3.693 3.693 0 0 1-3.671 3.576H6.178a2.462 2.462 0 0 0-2.448 2.389 2.31 2.31 0 0 0 2.322 2.389H8.14l-.816 8.541a6.599 6.599 0 0 0 6.652 7.306h1.802a10.403 10.403 0 0 0 10.295 8.613 11.106 11.106 0 0 0 10.745-8.613h22.468a7.613 7.613 0 0 0 4.885-1.832 6.64 6.64 0 0 0 4.652 1.832h.37a10.403 10.403 0 0 0 10.295 8.613 11.106 11.106 0 0 0 10.745-8.613h1.48a7.832 7.832 0 0 0 7.637-7.002l1.454-16.092v-.065c0-.023.006-.066.007-.1.001-.033.006-.049.006-.067zm-74.62 27.165a5.782 5.782 0 0 1-5.805-5.961 6.16 6.16 0 0 1 6.117-5.962 5.783 5.783 0 0 1 5.806 5.962 6.16 6.16 0 0 1-6.117 5.961zm53.418 0a5.783 5.783 0 0 1-5.806-5.961 6.16 6.16 0 0 1 6.117-5.962 5.782 5.782 0 0 1 5.806 5.962 6.16 6.16 0 0 1-6.117 5.961zm14.99-11.15a2.871 2.871 0 0 1-2.766 2.537h-1.6a10.404 10.404 0 0 0-10.183-8.08 11.109 11.109 0 0 0-10.61 8.08h-.492a2.024 2.024 0 0 1-1.524-.64 2.054 2.054 0 0 1-.503-1.591l3.007-33.316h6.906L75.745 29.26a6.598 6.598 0 0 0 6.652 7.307h13.43l-1.224 13.571z"/></symbol><symbol id="cart-fill" viewBox="0 0 512 512"><path fill="#FFF" d="M490.299 185.717H384.08L324.496 49.284c-3.315-7.591-12.157-11.06-19.749-7.743-7.592 3.315-11.059 12.158-7.743 19.75l54.34 124.427H160.656l54.34-124.427c3.315-7.592-.151-16.434-7.743-19.75-7.591-3.317-16.435.15-19.749 7.743L127.92 185.717H21.701c-13.895 0-24.207 12.579-21.167 25.82l55.935 243.63c2.221 9.674 11.015 16.55 21.167 16.55h356.728c10.152 0 18.946-6.876 21.167-16.55l55.935-243.63c3.04-13.24-7.273-25.82-21.167-25.82zm-359.557 46.004c-2.004 0-4.041-.404-5.996-1.258-7.592-3.315-11.059-12.157-7.743-19.75l11.268-25.802h32.736l-16.512 37.808c-2.461 5.639-7.971 9.002-13.753 9.002zM181 391.717c0 8.284-6.716 15-15 15s-15-6.716-15-15v-110c0-8.284 6.716-15 15-15s15 6.716 15 15zm90 0c0 8.284-6.716 15-15 15s-15-6.716-15-15v-110c0-8.284 6.716-15 15-15s15 6.716 15 15zm90 0c0 8.284-6.716 15-15 15s-15-6.716-15-15v-110c0-8.284 6.716-15 15-15s15 6.716 15 15zm26.253-161.254a14.938 14.938 0 0 1-5.995 1.258c-5.782 0-11.292-3.362-13.754-9.001l-16.512-37.808h32.736l11.268 25.802c3.316 7.592-.151 16.434-7.743 19.749z" data-original="#000000"/></symbol><symbol id="favorit-fill" viewBox="0 0 485 485"><path fill="#FFF" d="M343.611 22.543c-22.614 0-44.227 5.184-64.238 15.409-13.622 6.959-26.135 16.205-36.873 27.175-10.738-10.97-23.251-20.216-36.873-27.175-20.012-10.225-41.625-15.409-64.239-15.409C63.427 22.543 0 85.97 0 163.932c0 55.219 29.163 113.866 86.678 174.314 48.022 50.471 106.816 92.543 147.681 118.95l8.141 5.261 8.141-5.261c40.865-26.406 99.659-68.479 147.681-118.95C455.837 277.798 485 219.151 485 163.932c0-77.962-63.427-141.389-141.389-141.389z" data-original="#000000"/></symbol><symbol id="twitter" viewBox="0 0 15 12"><path fill="#03A9F4" d="M14.687 1.433c-.55.24-1.132.4-1.728.474A2.983 2.983 0 0 0 14.28.249a6 6 0 0 1-1.9.726 3 3 0 0 0-5.192 2.05c-.002.23.021.46.07.685A8.49 8.49 0 0 1 1.074.572a3 3 0 0 0 .922 4.009 2.962 2.962 0 0 1-1.355-.37v.034a3.014 3.014 0 0 0 2.4 2.948 2.994 2.994 0 0 1-.787.1 2.653 2.653 0 0 1-.568-.051 3.028 3.028 0 0 0 2.8 2.09 6.028 6.028 0 0 1-4.432 1.237 8.445 8.445 0 0 0 4.6 1.346 8.477 8.477 0 0 0 8.538-8.536c0-.133 0-.261-.01-.388a5.984 5.984 0 0 0 1.505-1.558z"/></symbol><symbol id="support" viewBox="0 0 69 89"><path fill="#FF6875" d="M.515 70.401v18.565h67.668V70.401a7.818 7.818 0 0 0-7.807-7.807H8.323a7.817 7.817 0 0 0-7.808 7.807zm5.205 0A2.606 2.606 0 0 1 8.323 67.8h2.602v15.966H5.72V70.401zM16.131 67.8h6.73l11.488 11.488L45.838 67.8h6.725v15.966H16.131V67.8zm46.847 2.6v13.36h-5.205V67.796h2.603a2.607 2.607 0 0 1 2.602 2.606zm-24.501-2.6l-4.128 4.127-4.127-4.127h8.255z"/><path fill="#FF6875" d="M53.82 52.18h3.957v-5.206h2.602a7.818 7.818 0 0 0 7.808-7.807v-5.205a33.836 33.836 0 0 0-67.672.003v5.205a7.817 7.817 0 0 0 7.808 7.807h3.942a23.415 23.415 0 0 0 41.556 5.202zm6.56-10.412h-2.754a23.4 23.4 0 0 0 .146-2.602V33.96a23.4 23.4 0 0 0-.146-2.602h2.748a2.606 2.606 0 0 1 2.603 2.602v5.205a2.606 2.606 0 0 1-2.602 2.607l.005-.005zM34.35 5.336a28.68 28.68 0 0 1 27.588 20.979 7.812 7.812 0 0 0-1.562-.157h-3.944a23.422 23.422 0 0 0-44.167 0H8.323a7.81 7.81 0 0 0-1.563.157 28.68 28.68 0 0 1 27.59-20.98zM49.294 23.56a18.292 18.292 0 0 1-14.946 7.803H16.317a18.212 18.212 0 0 1 32.978-7.803zM8.323 41.773a2.606 2.606 0 0 1-2.603-2.602v-5.205a2.606 2.606 0 0 1 2.603-2.602h2.753a23.425 23.425 0 0 0-.146 2.602v5.205c0 .87.049 1.738.146 2.602H8.323zm7.807-2.602v-2.602h18.22a23.51 23.51 0 0 0 17.46-7.815c.505 1.69.761 3.446.76 5.21v5.206a18.11 18.11 0 0 1-1.76 7.807h-8.654l-2.29-2.286a7.809 7.809 0 0 1-11.042 0l-3.68 3.68a13.012 13.012 0 0 0 17.009 1.21v2.598h4.928a18.208 18.208 0 0 1-30.95-13.01l-.001.002z"/></symbol></svg>